# xmcd CD database file
#
# Track frame offsets:
#	150
#	16373
#	43076
#	69361
#	83853
#	110243
#	129751
#	146181
#	170413
#	187063
#
# Disc length: 2730 seconds
#
# Revision: 0
# Processed by: cddbd v1.5.2PL0 Copyright (c) Steve Scherf et al.
# Submitted via: CDex 1.70beta2
#
DISCID=8d0aa80a
DTITLE=中西俊博　PROJECT 爆裂クインテット - 爆裂クインテット
DYEAR=2009
DGENRE=Jazz
TTITLE0=Stone Flower
TTITLE1=Some Skunk Funk
TTITLE2=Estate
TTITLE3=Rockin' In Rhythm
TTITLE4=新大陸
TTITLE5=Tequila
TTITLE6=プルミエール
TTITLE7=Milestones
TTITLE8=Time After Time
TTITLE9=ラ・ノーチェ・エスパニョーラ
EXTD=YEAR: 2009
EXTT0=
EXTT1=
EXTT2=
EXTT3=
EXTT4=
EXTT5=
EXTT6=
EXTT7=
EXTT8=
EXTT9=
PLAYORDER=
